<svg height="512"
    viewBox="0 0 54 58"
    width="512"
    xmlns="http://www.w3.org/2000/svg">
    <g
        fill="none"
        id="010---Benches">
        <path
            d="m25 6v-4c0-1.1045695.8954305-2 2-2s2 .8954305 2 2v4z"
            fill="#95a5a5"
            id="Shape" />
        <path
            d="m25 19h4v18h-4z"
            fill="#7f8c8d"
            id="Rectangle-path" />
        <path
            d="m27.89 4c-.05.17.07 0-.89 0h-.36c-11.99.11-21.64 5.44-21.64 12v2c.00000004 1.6761842 1.35881581 3.0349999 3.035 3.0349999s3.035-1.3588157 3.035-3.0349999c0-1.77-.25.21 1.25 1.71 1.2907778 1.2892338 3.2322197 1.671578 4.9154504.9680401 1.6832307-.7035378 2.7751372-2.3537268 2.7645496-4.1780401v-.5c0 2.7614237 2.2385763 5 5 5h4c2.7614237 0 5-2.2385763 5-5v.5c-.0033862 1.1939541.4720882 2.3394149 1.32 3.18 1.18668 1.1844543 2.9334531 1.6109545 4.532464 1.1066672s2.7850672-1.855727 3.077536-3.5066672v.72c0 1.6761842 1.3588158 3.035 3.035 3.035s3.035-1.3588158 3.035-3.035v-2c0-6.47-9.37-11.73-21.11-12z"
            fill="#e64c3c"
            id="Shape" />
        <path
            d="m25 36h4v8.73h-4z"
            fill="#7f8c8d"
            id="Rectangle-path" />
        <path
            d="m49 16v2c0 1.6761842-1.3588158 3.035-3.035 3.035s-3.035-1.3588158-3.035-3.035c0-1.25.07-.54.07-2z"
            fill="#c03a2b"
            id="Shape" />
        <path
            d="m43 16c.0261851.4279382.0026951.8574693-.07 1.28 0-1.46-.03-1.28.07-1.28z"
            fill="#e64c3c"
            id="Shape" />
        <path
            d="m11.07 17.28v.72c0 1.6761842-1.35881581 3.0349999-3.035 3.0349999s-3.03499996-1.3588157-3.035-3.0349999v-2h6c-.0261851.4279382-.0026951.8574693.07 1.28z"
            fill="#c03a2b"
            id="Shape" />
        <path
            d="m11.07 17.28c-.0653225-.4233314-.0887691-.8520698-.07-1.28.1 0 .07-.18.07 1.28z"
            fill="#e64c3c"
            id="Shape" />
        <path
            d="m42.93 16v1.28c-.4092419 2.2932344-2.5009501 3.8950661-4.8215787 3.6923684-2.3206285-.2026976-4.1029532-2.1429107-4.1084213-4.4723684v-.5z"
            fill="#f0c419"
            id="Shape" />
        <path
            d="m43 16c.0261851.4279382.0026951.8574693-.07 1.28 0-1.46-.03-1.28.07-1.28z"
            fill="#e64c3c"
            id="Shape" />
        <path
            d="m20 16v.5c-.0054681 2.3294577-1.7877928 4.2696708-4.1084213 4.4723684-2.3206286.2026977-4.4123368-1.399134-4.8215787-3.6923684v-1.28z"
            fill="#f0c419"
            id="Shape" />
        <path
            d="m11.07 17.28c-.0653225-.4233314-.0887691-.8520698-.07-1.28.1 0 .07-.18.07 1.28z"
            fill="#e64c3c"
            id="Shape" />
        <path
            d="m34 16c0 2.7614237-2.2385763 5-5 5h-4c-2.7614237 0-5-2.2385763-5-5z"
            fill="#c03a2b"
            id="Shape" />
        <path
            d="m27 4c-3.87 0-7 5.37-7 12h-9c0-7.25 8-12 16-12z"
            fill="#f3d55b"
            id="Shape" />
        <path
            d="m43 16h-9c0-6.13-2.67-11.18-6.13-11.91v-.07c8.45.35 15.13 5.57 15.13 11.98z"
            fill="#f3d55b"
            id="Shape" />
        <path
            d="m45 38h-36c-1.1045695 0-2-.8954305-2-2s.8954305-2 2-2h36c1.1045695 0 2 .8954305 2 2s-.8954305 2-2 2z"
            fill="#cf976a"
            id="Shape" />
        <rect
            fill="#cb8252"
            height="5"
            id="Rectangle-path"
            rx="2"
            width="13"
            y="42" />
        <rect
            fill="#cb8252"
            height="5"
            id="Rectangle-path"
            rx="2"
            width="13"
            x="41"
            y="42" />
        <path
            d="m43.9 51c1.3590514-.0004936 2.6776749-.4623644 3.74-1.31l3.36-2.69h-48l3.36 2.69c1.06232512.8476356 2.38094864 1.3095064 3.74 1.31z"
            fill="#a56a43"
            id="Shape" />
        <path
            d="m34 38-20.1 19.14c-.1472153.1418864-.1932106.3591087-.1161383.5484865.0770724.1893778.2616815.3127494.4661383.3115135h4.35c.2574695-.0010253.5046225-.1013193.69-.28l20.71-19.72z"
            fill="#603e26"
            id="Shape" />
        <path
            d="m14.05 38c22.45 21.42 20.76 20 21.35 20h4.35c.2044568.0012359.3890659-.1221357.4661383-.3115135.0770723-.1893778.031077-.4066001-.1161383-.5484865-13.49-12.88-8.7-8.29-20-19.14z"
            fill="#805333"
            id="Shape" />
    </g>
</svg>