<svg height="512"
    viewBox="0 0 54 58"
    width="512"
    xmlns="http://www.w3.org/2000/svg">
    <g id="010---Benches">
        <rect
            height="9"
            id="Rectangle-path"
            rx="1"
            width="4"
            x="25"
            y="22" />
        <rect
            height="5"
            id="Rectangle-path"
            rx="2"
            width="13"
            y="39" />
        <rect
            height="5"
            id="Rectangle-path"
            rx="2"
            width="13"
            x="41"
            y="39" />
        <path
            d="m28 2c0-.9.09-1.34-.29-1.7-.2848091-.28716137-.714552-.37449029-1.0888524-.22126791-.3743004.15322239-.6194518.51682384-.6211476.92126791v1z"
            id="Shape" />
        <path
            d="m38.5 19c1.6834822-.0012864 3.1261053-1.2041733 3.43-2.86v-.14h-6.93c.2504153 1.7355795 1.7465403 3.0179723 3.5 3z"
            id="Shape" />
        <path
            d="m33 14c-.28-5.51-2.9-10-6-10s-5.69 4.49-6 10z"
            id="Shape" />
        <path
            d="m43.93 14h4c-.57-3.12-3.75-5.9-8.34-7.73 2.4062829 1.9062103 3.9653746 4.6831178 4.34 7.73z"
            id="Shape" />
        <path
            d="m41.93 14c-.54-4.38-4.6-8-10.09-9.4 2.0161351 2.72280013 3.121943 6.0122289 3.16 9.4z"
            id="Shape" />
        <path
            d="m43.93 16.33v.67c0 1.1238995.9111005 2.035 2.035 2.035s2.035-.9111005 2.035-2.035v-1h-4c0 .11 0 .22-.07.33z"
            id="Shape" />
        <path
            d="m14.44 6.27c-4.59 1.83-7.77 4.61-8.34 7.73h4c.3746254-3.0468822 1.9337171-5.8237897 4.34-7.73z"
            id="Shape" />
        <path
            d="m8 19c1.1045695 0 2-.8954305 2-2v-.64c0-.11 0-.22 0-.33h-4v1c.01639438 1.0928361.90704095 1.970123 2 1.97z"
            id="Shape" />
        <path
            d="m32.87 16h-11.74c.4557202 1.7649988 2.0471177 2.9986403 3.87 3h4c1.8228823-.0013597 3.4142798-1.2350012 3.87-3z"
            id="Shape" />
        <path
            d="m19 14c.0293562-3.3844397 1.1245612-6.67355374 3.13-9.4-5.49 1.38-9.55 5-10.09 9.4z"
            id="Shape" />
        <path
            d="m15.5 19c1.7534597.0179723 3.2495847-1.2644205 3.5-3h-6.93v.14c.3038947 1.6558267 1.7465178 2.8587136 3.43 2.86z"
            id="Shape" />
        <path
            d="m27 49.36 7.71 7.36c.39.37.47.28 3.79.28.4089135.0024719.7781319-.2442714.9322766-.623027s.062154-.8132002-.2322766-1.096973l-5.53-5.28h10.23c1.3590514-.0004936 2.6776749-.4623644 3.74-1.31l3.36-2.69h-20.48l9.48-9h5c.5295768-.0022328 1.0366497-.2144122 1.41-.59.5684616-.5718399.7379389-1.4291108.4298346-2.1742425s-1.0335232-1.2323721-1.8398346-1.2357575h-36c-.52957685.0022328-1.03664971.2144122-1.41.59-.56846165.5718399-.73793892 1.4291108-.42983461 2.1742425s1.03352322 1.2323721 1.83983461 1.2357575h5.05l9.43 9h-20.48l3.36 2.69c1.06232512.8476356 2.38094864 1.3095064 3.74 1.31h10.23l-5.53 5.28c-.2944306.2837728-.3864213.7182174-.2322766 1.096973s.5233631.6254989.9322766.623027h3.1c.2574695-.0010253.5046225-.1013193.69-.28zm2-12.36h5l-5 4.73zm-4 4.73-4.95-4.73h4.95z"
            id="Shape" />
    </g>
</svg>